<svg xmlns="http://www.w3.org/2000/svg" width="166" height="56">
  <rect width="166" height="56" rx="12" ry="12" />
  <path
    d="M40.59 16c-.56 6.26-1.04 8.94-3.21 10.35a5.091 5.091 0 0 1-5.58 0c-2.17-1.42-2.65-4.09-3.21-10.35-.88 9.88-1.59 10.83-9 12 7.41 1.17 8.12 2.12 9 12 .56-6.26 1.04-8.94 3.21-10.35a5.091 5.091 0 0 1 5.58 0c2.17 1.42 2.65 4.09 3.21 10.35.88-9.88 1.59-10.83 9-12-7.41-1.17-8.12-2.12-9-12Zm15.98 5.29h2.79v4.94h5.39v-4.94h2.77V34h-2.77v-5.26h-5.39V34h-2.79V21.29Zm15.74 12.46-3.69-8.93h2.79l2.19 6 2.17-6h2.77l-5.29 12.71h-2.48l1.55-3.78Zm12.51-9.14c.85 0 1.57.21 2.18.63.61.42 1.07.99 1.38 1.72s.48 1.55.48 2.46-.16 1.74-.48 2.46-.78 1.3-1.38 1.72-1.33.63-2.18.63c-.6 0-1.13-.11-1.58-.32s-.84-.53-1.16-.95v4.59H79.5V24.83h2.51v1.19c.3-.44.69-.79 1.16-1.03s1.02-.36 1.65-.36Zm-.68 2.1c-.47 0-.86.11-1.17.34s-.54.54-.7.93c-.16.4-.23.88-.23 1.43s.08 1.03.23 1.43c.16.4.39.71.7.94.31.23.71.33 1.17.33s.86-.11 1.17-.33c.31-.23.54-.54.68-.94.15-.4.22-.88.22-1.43s-.07-1.03-.22-1.43c-.15-.4-.37-.71-.68-.93-.31-.23-.71-.34-1.17-.34Zm7.88 6.87c-.71-.42-1.24-.99-1.62-1.72s-.56-1.55-.56-2.46.18-1.74.56-2.46.91-1.29 1.62-1.72c.71-.42 1.54-.63 2.49-.63s1.82.2 2.52.61c.71.4 1.24.99 1.6 1.76.36.76.54 1.67.54 2.7v.53h-6.78c.07.42.2.79.38 1.09s.42.54.71.71c.3.16.64.25 1.02.25.51 0 .92-.09 1.26-.28s.58-.45.76-.8h2.49c-.3.93-.83 1.67-1.62 2.22s-1.74.82-2.88.82c-.95 0-1.78-.21-2.49-.63v.02Zm3.87-6.5c-.36-.34-.82-.5-1.38-.5s-1.01.17-1.38.5-.61.8-.73 1.4h4.2c-.12-.6-.35-1.07-.71-1.4Zm4.67-2.26h2.51v1.6c.28-.6.65-1.03 1.1-1.31.45-.27.99-.4 1.6-.4h.74v2.36h-.86c-.53 0-.98.08-1.35.25-.37.17-.66.45-.85.85-.2.4-.3.93-.3 1.62v4.2h-2.58v-9.18Zm7.27 0h2.51v1.24c.34-.44.76-.78 1.24-1.05.48-.26 1.04-.4 1.66-.4.67 0 1.25.14 1.74.43s.86.71 1.13 1.26.4 1.24.4 2.05V34h-2.58v-5.34c0-.55-.13-1-.38-1.33-.25-.33-.66-.49-1.23-.49-.33 0-.64.08-.92.23-.29.16-.52.39-.71.71-.18.32-.28.73-.28 1.24v5h-2.58v-9.18Zm13.3 8.93-3.68-8.93h2.79l2.19 6 2.17-6h2.77l-5.29 12.71h-2.49l1.55-3.78Zm7.2-8.93h2.51v1.31c.3-.47.68-.84 1.14-1.12.45-.27.99-.4 1.6-.4s1.16.14 1.63.43.82.71 1.07 1.28c.35-.52.78-.93 1.3-1.24.52-.31 1.09-.47 1.74-.47s1.16.14 1.63.43.83.71 1.09 1.27.39 1.24.39 2.04V34h-2.59v-5.34c0-.54-.12-.98-.35-1.31-.23-.33-.59-.5-1.07-.5-.51 0-.92.18-1.24.52-.32.35-.49.9-.49 1.65v5h-2.58v-5.34c0-.54-.12-.98-.35-1.31-.23-.33-.59-.5-1.08-.5s-.92.18-1.25.52c-.33.35-.49.9-.49 1.65v5h-2.58v-9.2Z"
    style="fill:#fff;opacity:.9"
  />
</svg>
